<svg width="900" height="184" viewBox="0 0 900 184" fill="none" xmlns="http://www.w3.org/2000/svg">
<path d="M100.121 150.577C100.121 155.934 99.1814 160.653 97.303 164.735C95.5498 168.817 92.6069 172.261 88.4744 175.067C84.3418 178 78.8317 180.169 71.9441 181.572C65.1817 183.103 56.7914 183.868 46.7731 183.868C38.2575 183.868 30.9942 183.294 24.9832 182.146C19.0974 181.126 14.2761 179.595 10.5192 177.554C6.8876 175.641 4.19517 173.217 2.44197 170.283C0.813989 167.477 0 164.225 0 160.526C0 154.913 1.62798 150.513 4.88393 147.324C8.13989 144.135 12.6481 142.158 18.4087 141.393V139.288C13.65 138.395 10.0809 136.354 7.70159 133.165C5.32224 129.849 4.13256 126.023 4.13256 121.686C4.13256 119.007 4.63348 116.711 5.63531 114.798C6.76237 112.757 8.13989 111.035 9.76787 109.632C11.5211 108.101 13.5247 106.89 15.7789 105.997C18.033 105.104 20.2871 104.402 22.5412 103.892V103.127C16.5302 100.321 12.0846 96.494 9.20434 91.6469C6.32407 86.6724 4.88393 80.9325 4.88393 74.4273C4.88393 64.223 8.32773 56.0596 15.2153 49.9371C22.2282 43.687 32.8726 40.5619 47.1488 40.5619C53.6607 40.5619 59.2334 41.1997 63.8668 42.4752V38.6486C63.8668 33.2914 65.1191 29.4648 67.6237 27.1688C70.2535 24.7453 73.9478 23.5336 78.7065 23.5336H94.2975V44.5798H72.5077V45.7278C78.2682 48.534 82.526 52.4243 85.281 57.3989C88.0361 62.2459 89.4136 67.9221 89.4136 74.4273C89.4136 84.504 85.9072 92.6036 78.8943 98.7261C72.0067 104.721 61.4249 107.719 47.1488 107.719C40.7621 107.719 34.9389 107.017 29.6793 105.614C26.799 107.527 25.3589 110.206 25.3589 113.65C25.3589 116.073 26.2355 117.987 27.9887 119.39C29.8671 120.665 32.9353 121.303 37.193 121.303H65.7453C77.7673 121.303 86.4707 123.854 91.8556 128.956C97.3656 134.058 100.121 141.265 100.121 150.577ZM74.0104 154.403C74.0104 151.469 72.8833 149.237 70.6292 147.707C68.3751 146.176 64.4304 145.411 58.7951 145.411H24.9832C23.7309 146.686 22.7917 148.089 22.1656 149.62C21.6646 151.278 21.4142 152.872 21.4142 154.403C21.4142 158.102 22.9795 160.781 26.1103 162.439C29.241 164.225 34.5632 165.118 42.077 165.118H53.3476C60.8613 165.118 66.1836 164.225 69.3143 162.439C72.445 160.781 74.0104 158.102 74.0104 154.403ZM47.1488 89.1597C52.6588 89.1597 56.7288 88.0117 59.3586 85.7157C62.1136 83.2922 63.4912 79.8483 63.4912 75.3839V73.088C63.4912 68.6236 62.1136 65.2434 59.3586 62.9475C56.7288 60.524 52.6588 59.3122 47.1488 59.3122C41.6387 59.3122 37.5061 60.524 34.7511 62.9475C32.1213 65.2434 30.8064 68.6236 30.8064 73.088V75.3839C30.8064 79.8483 32.1213 83.2922 34.7511 85.7157C37.5061 88.0117 41.6387 89.1597 47.1488 89.1597Z" fill="black"/>
<path d="M103.081 42.8579H129.942L139.522 83.4198L146.285 114.033H147.036L154.926 83.4198L166.196 42.8579H191.555L203.013 83.4198L211.091 114.033H211.842L218.605 83.4198L228.185 42.8579H253.919L226.682 143.306H197.566L185.544 100.831L178.594 74.8099H178.03L171.268 100.831L159.246 143.306H130.694L103.081 42.8579Z" fill="black"/>
<path d="M340.731 143.306C335.722 143.306 331.526 141.712 328.145 138.523C324.889 135.334 322.823 131.061 321.946 125.704H320.819C319.317 132.209 315.998 137.183 310.864 140.627C305.729 143.944 299.405 145.602 291.891 145.602C281.998 145.602 274.422 142.923 269.162 137.566C263.903 132.209 261.273 125.13 261.273 116.328C261.273 105.742 265.03 97.897 272.544 92.7949C280.182 87.5652 290.514 84.9504 303.538 84.9504H319.129V78.6365C319.129 73.7895 317.876 69.9629 315.372 67.1567C312.867 64.223 308.672 62.7562 302.786 62.7562C297.276 62.7562 292.893 63.9679 289.637 66.3914C286.381 68.8149 283.689 71.5573 281.56 74.6186L265.03 59.6949C269.037 53.6999 274.046 49.0442 280.057 45.7278C286.193 42.2839 294.459 40.5619 304.853 40.5619C318.878 40.5619 329.398 43.687 336.41 49.9371C343.423 56.1872 346.93 65.3072 346.93 77.2972V121.303H356.134V143.306H340.731ZM302.223 125.895C306.856 125.895 310.801 124.875 314.057 122.834C317.438 120.793 319.129 117.476 319.129 112.885V101.022H305.604C294.709 101.022 289.262 104.785 289.262 112.311V115.181C289.262 118.88 290.389 121.622 292.643 123.408C294.897 125.066 298.09 125.895 302.223 125.895Z" fill="black"/>
<path d="M388.694 32.1434C383.059 32.1434 378.926 30.8679 376.296 28.3168C373.792 25.6382 372.539 22.258 372.539 18.1763V13.9671C372.539 9.88537 373.792 6.56899 376.296 4.01792C378.926 1.33931 383.059 0 388.694 0C394.329 0 398.399 1.33931 400.904 4.01792C403.534 6.56899 404.849 9.88537 404.849 13.9671V18.1763C404.849 22.258 403.534 25.6382 400.904 28.3168C398.399 30.8679 394.329 32.1434 388.694 32.1434ZM374.794 42.8579H402.594V143.306H374.794V42.8579Z" fill="black"/>
<path d="M463.105 143.306C453.462 143.306 446.136 140.819 441.127 135.844C436.243 130.87 433.801 123.599 433.801 114.033V64.8608H419.901V42.8579H426.851C430.608 42.8579 433.175 41.965 434.553 40.1792C435.93 38.2659 436.619 35.5873 436.619 32.1434V15.689H461.602V42.8579H481.138V64.8608H461.602V121.303H479.635V143.306H463.105Z" fill="black"/>
<path d="M500.451 1.72197H528.252V59.8862H529.379C531.132 54.6565 534.2 50.1284 538.583 46.3018C542.966 42.4752 549.04 40.5619 556.804 40.5619C566.947 40.5619 574.586 44.0058 579.721 50.8937C584.98 57.7816 587.61 67.6032 587.61 80.3585V143.306H559.809V82.6544C559.809 76.1492 558.807 71.366 556.804 68.3047C554.8 65.1159 551.231 63.5215 546.097 63.5215C543.843 63.5215 541.651 63.8404 539.522 64.4781C537.393 64.9883 535.452 65.8812 533.699 67.1567C532.071 68.4323 530.756 70.0267 529.754 71.94C528.752 73.7257 528.252 75.8304 528.252 78.2539V143.306H500.451V1.72197Z" fill="black"/>
<path d="M630.779 145.028C625.645 145.028 622.013 143.944 619.884 141.775C617.88 139.607 616.879 136.865 616.879 133.548V130.104C616.879 126.788 617.88 124.045 619.884 121.877C622.013 119.709 625.645 118.624 630.779 118.624C635.913 118.624 639.482 119.709 641.486 121.877C643.615 124.045 644.679 126.788 644.679 130.104V133.548C644.679 136.865 643.615 139.607 641.486 141.775C639.482 143.944 635.913 145.028 630.779 145.028Z" fill="black"/>
<path d="M749.423 22.7682C745.04 22.7682 741.972 21.8754 740.218 20.0896C738.465 18.1763 737.589 15.8166 737.589 13.0104V9.94914C737.589 7.14297 738.465 4.84701 740.218 3.06127C741.972 1.14798 745.04 0.191327 749.423 0.191327C753.806 0.191327 756.874 1.14798 758.627 3.06127C760.38 4.84701 761.257 7.14297 761.257 9.94914V13.0104C761.257 15.8166 760.38 18.1763 758.627 20.0896C756.874 21.8754 753.806 22.7682 749.423 22.7682ZM706.97 130.296H741.909V57.5903H706.97V44.5798H756.937V130.296H789.621V143.306H706.97V130.296Z" fill="black"/>
<path d="M856.045 145.602C849.282 145.602 843.146 144.39 837.636 141.967C832.251 139.543 827.618 136.099 823.735 131.635C819.979 127.043 817.098 121.622 815.095 115.372C813.091 108.994 812.089 101.851 812.089 93.9429C812.089 86.1622 813.091 79.083 815.095 72.7053C817.098 66.3276 819.979 60.9066 823.735 56.4423C827.618 51.8504 832.251 48.3426 837.636 45.9191C843.146 43.4956 849.282 42.2839 856.045 42.2839C862.807 42.2839 868.881 43.4956 874.265 45.9191C879.776 48.3426 884.409 51.8504 888.166 56.4423C892.048 60.9066 894.991 66.3276 896.995 72.7053C898.998 79.083 900 86.1622 900 93.9429C900 101.851 898.998 108.994 896.995 115.372C894.991 121.622 892.048 127.043 888.166 131.635C884.409 136.099 879.776 139.543 874.265 141.967C868.881 144.39 862.807 145.602 856.045 145.602ZM856.045 132.4C864.435 132.4 871.197 129.849 876.332 124.747C881.466 119.645 884.033 111.737 884.033 101.022V86.8637C884.033 76.1492 881.466 68.2409 876.332 63.1388C871.197 58.0367 864.435 55.4856 856.045 55.4856C847.654 55.4856 840.892 58.0367 835.757 63.1388C830.623 68.2409 828.056 76.1492 828.056 86.8637V101.022C828.056 111.737 830.623 119.645 835.757 124.747C840.892 129.849 847.654 132.4 856.045 132.4Z" fill="black"/>
</svg>
